{
    "asset" : {
        "generator" : "Khronos glTF Blender I/O v3.2.43",
        "version" : "2.0"
    },
    "scene" : 0,
    "scenes" : [
        {
            "name" : "Scene",
            "nodes" : [
                0
            ]
        }
    ],
    "nodes" : [
        {
            "mesh" : 0,
            "name" : "pawn",
            "scale" : [
                0.314363956451416,
                0.314363956451416,
                0.314363956451416
            ]
        }
    ],
    "materials" : [
        {
            "doubleSided" : true,
            "name" : "pawn",
            "pbrMetallicRoughness" : {
                "baseColorFactor" : [
                    0.800000011920929,
                    0.800000011920929,
                    0.800000011920929,
                    1
                ],
                "metallicFactor" : 0,
                "roughnessFactor" : 0.5
            }
        }
    ],
    "meshes" : [
        {
            "name" : "pawn",
            "primitives" : [
                {
                    "attributes" : {
                        "POSITION" : 0,
                        "NORMAL" : 1,
                        "TEXCOORD_0" : 2
                    },
                    "indices" : 3,
                    "material" : 0
                }
            ]
        }
    ],
    "accessors" : [
        {
            "bufferView" : 0,
            "componentType" : 5126,
            "count" : 382,
            "max" : [
                1.4922279119491577,
                5.506692409515381,
                1.4922279119491577
            ],
            "min" : [
                -1.4922280311584473,
                0.0007834280841052532,
                -1.4922279119491577
            ],
            "type" : "VEC3"
        },
        {
            "bufferView" : 1,
            "componentType" : 5126,
            "count" : 382,
            "type" : "VEC3"
        },
        {
            "bufferView" : 2,
            "componentType" : 5126,
            "count" : 382,
            "type" : "VEC2"
        },
        {
            "bufferView" : 3,
            "componentType" : 5123,
            "count" : 2010,
            "type" : "SCALAR"
        }
    ],
    "bufferViews" : [
        {
            "buffer" : 0,
            "byteLength" : 4584,
            "byteOffset" : 0
        },
        {
            "buffer" : 0,
            "byteLength" : 4584,
            "byteOffset" : 4584
        },
        {
            "buffer" : 0,
            "byteLength" : 3056,
            "byteOffset" : 9168
        },
        {
            "buffer" : 0,
            "byteLength" : 4020,
            "byteOffset" : 12224
        }
    ],
    "buffers" : [
        {
            "byteLength" : 16244,
            "uri" : "pawn.bin"
        }
    ]
}
